<svg width="182" height="260" viewBox="0 0 182 260" fill="none" xmlns="http://www.w3.org/2000/svg">
<path fill-rule="evenodd" clip-rule="evenodd" d="M121.411 132.914C118.829 131.991 116.146 131.198 113.364 130.533C107.811 132.146 104.207 134.141 101.007 136.96C102.897 137.469 104.719 138.117 106.474 138.904C107.013 138.533 107.563 138.179 108.118 137.847C110.894 136.181 115.676 134.437 121.411 132.914ZM114.399 143.764C121.687 142.429 129.476 141.517 137.329 141.114C138.014 141.598 138.689 142.095 139.353 142.606C140.622 143.581 141.852 144.605 143.045 145.677C156.171 157.479 162.734 173.495 162.734 193.727C162.734 213.958 156.171 229.975 143.045 241.777C129.918 253.578 112.216 259.479 89.937 259.479C67.6583 259.479 49.9557 253.578 36.8293 241.777C23.703 229.975 17.1398 213.958 17.1398 193.727C17.1398 180.36 20.0902 168.738 25.9911 158.864C29.8309 152.489 34.6747 147.07 40.5225 142.606C41.2329 142.064 41.9581 141.536 42.6981 141.022L44.2195 141.091C50.5676 141.377 58.6295 142.31 65.8089 143.491C65.0519 144.091 64.3125 144.725 63.5906 145.392C61.7171 147.125 59.962 149.086 58.3253 151.277C50.6181 161.633 46.7645 175.783 46.7645 193.727C46.7645 211.67 50.6181 225.88 58.3253 236.357C66.153 246.714 76.6902 251.892 89.937 251.892C103.184 251.892 113.661 246.714 121.368 236.357C129.196 225.88 133.11 211.67 133.11 193.727C133.11 181.925 131.363 171.629 127.871 162.838C125.018 155.656 121.161 149.841 116.299 145.392C115.682 144.827 115.048 144.284 114.399 143.764ZM59.5983 132.591C66.2779 134.165 71.0606 135.967 74.7957 138.287C76.6681 137.544 78.6191 136.952 80.6488 136.513C77.2824 133.846 73.0852 131.786 67.9657 130.248C65.0801 130.892 62.291 131.673 59.5983 132.591Z" fill="#FECB00"/>
<path d="M3.70781 3.81982C9.22188 11.4422 9.22188 23.1191 3.70781 45.9862C0.626423 58.6361 0.220977 61.3121 0.220977 70.313C0.139888 79.6382 0.302066 80.7735 2.24821 84.909C6.30267 93.5045 14.0872 100.235 23.6558 103.56C26.3317 104.452 34.6028 105.83 43.4415 106.803C51.7126 107.776 61.3622 109.155 64.8491 110.047C78.7964 113.534 86.581 120.345 89.7435 131.941L90.7165 135.59L92.1761 130.968C93.9601 125.129 96.2306 121.48 100.366 117.75C106.934 111.831 115.043 109.479 138.316 106.803C154.777 104.938 157.453 104.289 163.697 100.965C176.266 94.3154 183.077 81.9087 181.861 67.8803C181.536 64.5556 179.915 55.5547 178.131 48.0134C173.995 29.8495 172.941 23.2001 173.509 16.713C174.076 10.4691 175.698 5.92814 178.779 2.68457L180.969 0.414076L178.942 0.981701C168.238 4.14418 163.21 18.9835 162.399 49.7163C161.913 66.745 161.183 69.5021 155.669 74.2863C150.317 79.0706 144.073 80.9357 132.315 81.3411L122.585 81.6655L129.477 79.6382C139.613 76.719 142.451 75.2594 142.451 73.07C142.451 68.6912 128.18 50.6894 117.152 41.1209C107.664 32.9308 107.989 33.0119 105.556 37.7962C102.88 43.1481 99.7174 54.1762 98.0957 63.988C96.4739 73.962 95.0143 73.7187 95.8252 63.5015C96.555 54.014 98.9066 40.8776 101.501 32.201C102.556 28.3899 103.529 24.903 103.529 24.4165C103.529 23.4434 93.2303 18.4159 91.122 18.4159C89.1758 18.4159 81.4724 21.4973 79.4451 23.1191L77.5801 24.4976L79.283 29.7684C82.2022 39.0936 84.8781 53.4464 85.4457 62.9339C85.8512 69.9075 85.689 72.0158 85.0403 71.6104C84.4727 71.286 84.0672 70.0697 84.0672 68.8534C83.9861 61.3932 77.0125 37.3908 73.85 33.9039C73.2013 33.1741 64.3625 40.8776 56.8212 48.6622C48.6312 57.0954 42.3874 65.0422 39.7925 70.4752C37.8464 74.5296 38.8194 75.5027 47.496 78.0975C59.1728 81.5844 59.2539 81.6655 49.1989 81.3411C34.6028 80.7735 26.3317 77.2866 21.9529 69.8264C19.6824 66.0152 19.6824 65.6098 19.0337 48.8243C18.2228 24.4976 15.6279 12.9829 9.46515 5.92814C7.11356 3.33329 3.22128 0.576255 1.76167 0.576255C1.5184 0.576255 2.41039 2.03586 3.70781 3.81982Z" fill="#FECB00"/>
<path d="M35.819 110.209C35.5757 110.776 34.927 113.452 34.2783 116.209L33.1431 121.156L43.8468 121.642C54.6317 122.129 70.363 124.481 78.3098 126.751C80.6613 127.4 82.7697 127.805 83.0129 127.643C83.1751 127.4 82.1209 125.859 80.6613 124.156C74.012 116.534 64.4435 113.128 39.6302 109.722C37.1975 109.317 36.0623 109.479 35.819 110.209Z" fill="#FECB00"/>
<path d="M135.153 110.533C123.638 112.317 112.61 115.48 107.745 118.399C101.501 122.129 95.9059 128.778 100.123 127.562C110.989 124.399 124.125 122.291 137.424 121.642C147.884 121.156 148.208 121.075 147.803 119.453C147.56 118.48 146.992 115.804 146.506 113.452C145.451 108.668 146.262 108.911 135.153 110.533Z" fill="#FECB00"/>
</svg>
