<svg width="177" height="73" viewBox="0 0 177 73" fill="none" xmlns="http://www.w3.org/2000/svg">
<path d="M94.885 41.68C95.4397 41.68 95.909 41.488 96.293 41.104C96.6983 40.6986 96.9117 40.2186 96.933 39.664V21.904C96.9117 21.3493 96.6983 20.88 96.293 20.496C95.909 20.112 95.4397 19.92 94.885 19.92H94.469V19.6H104.197L104.165 19.92H103.781C103.226 19.92 102.746 20.112 102.341 20.496C101.936 20.88 101.733 21.3493 101.733 21.904V39.664C101.733 40.2186 101.936 40.6986 102.341 41.104C102.746 41.488 103.226 41.68 103.781 41.68H104.165L104.197 42H94.469V41.68H94.885Z" fill="#FFFC89"/>
<path d="M80.21 19.6C83.986 19.6 86.9727 20.6026 89.17 22.608C91.3673 24.6133 92.466 27.344 92.466 30.8C92.466 34.256 91.3673 36.9866 89.17 38.992C86.9727 40.9973 83.986 42 80.21 42H68.594V41.68H69.01C69.5647 41.68 70.034 41.488 70.418 41.104C70.8233 40.6986 71.0367 40.2186 71.058 39.664V21.744C70.994 21.232 70.77 20.8053 70.386 20.464C70.002 20.1013 69.5433 19.92 69.01 19.92H68.594V19.6H80.21ZM79.794 40.656C81.33 40.656 82.6527 40.2613 83.762 39.472C84.8927 38.6613 85.7567 37.52 86.354 36.048C86.9513 34.5546 87.25 32.8053 87.25 30.8C87.25 27.7706 86.578 25.3706 85.234 23.6C83.9113 21.8293 82.098 20.944 79.794 20.944H75.858V40.656H79.794Z" fill="#FFFC89"/>
<path d="M66.53 19.92H65.986C65.538 19.92 65.1433 20.0693 64.802 20.368C64.482 20.6453 64.322 20.9973 64.322 21.424V33.904C64.322 36.528 63.5007 38.608 61.858 40.144C60.2153 41.68 57.9647 42.448 55.106 42.448C51.7353 42.448 49.154 41.7013 47.362 40.208C45.57 38.6933 44.674 36.6026 44.674 33.936V21.52C44.674 21.0506 44.5033 20.6666 44.162 20.368C43.842 20.0693 43.4473 19.92 42.978 19.92H42.466V19.6H51.682V19.92H51.17C50.7007 19.92 50.306 20.0693 49.986 20.368C49.666 20.6453 49.4953 21.008 49.474 21.456V33.68C49.474 35.9413 50.0287 37.7333 51.138 39.056C52.2473 40.3786 53.7727 41.04 55.714 41.04C57.6553 41.04 59.1913 40.4213 60.322 39.184C61.4527 37.9253 62.0287 36.2293 62.05 34.096V21.456C62.05 21.008 61.8793 20.6453 61.538 20.368C61.218 20.0693 60.8233 19.92 60.354 19.92H59.842V19.6H66.53V19.92Z" fill="#FFFC89"/>
<path d="M33.0255 20.912V39.696C33.0468 40.2507 33.2495 40.72 33.6335 41.104C34.0388 41.488 34.5188 41.68 35.0735 41.68H35.4575L35.4895 42H25.7615V41.68H26.1775C26.7108 41.68 27.1695 41.488 27.5535 41.104C27.9588 40.72 28.1828 40.2613 28.2255 39.728V20.912H23.9055C22.9242 20.9333 22.1455 21.2427 21.5695 21.84C20.9935 22.4373 20.7055 23.216 20.7055 24.176V24.56H20.3855V18.992C20.6842 19.12 21.2175 19.248 21.9855 19.376C22.7748 19.504 23.5002 19.568 24.1615 19.568H37.0575C38.1028 19.5467 38.9562 19.4613 39.6175 19.312C40.2788 19.1627 40.6842 19.056 40.8335 18.992V24.56H40.5135V24.176C40.5135 23.216 40.2255 22.4373 39.6495 21.84C39.0735 21.2427 38.2948 20.9333 37.3135 20.912H33.0255Z" fill="#FFFC89"/>
<path d="M3.008 32.912C2.15467 34.2773 1.728 35.6746 1.728 37.104C1.728 38.6613 2.29333 40.08 3.424 41.36C4.04267 42.0853 4.82133 42.6506 5.76 43.056C6.72 43.4613 7.76533 43.664 8.896 43.664C10.0267 43.664 11.04 43.4506 11.936 43.024C13.728 42.1493 14.624 40.72 14.624 38.736C14.624 37.9893 14.368 37.2 13.856 36.368C13.3653 35.536 12.6187 34.7893 11.616 34.128L6.176 30.48C4.064 29.1573 3.008 27.4506 3.008 25.36C3.008 25.1466 3.01867 24.9333 3.04 24.72C3.168 23.0773 3.81867 21.744 4.992 20.72C6.18667 19.6746 7.776 19.152 9.76 19.152C10.976 19.152 12.448 19.2586 14.176 19.472H16.16L15.744 24.176H15.456C15.4347 23.0666 15.008 22.1813 14.176 21.52C13.344 20.8373 12.2453 20.496 10.88 20.496C9.216 20.496 8.01067 20.9973 7.264 22C6.90133 22.512 6.72 23.0666 6.72 23.664C6.72 24.2613 6.90133 24.7733 7.264 25.2C7.62667 25.6053 8.20267 26.0533 8.992 26.544L14.976 30.448C16.192 31.2373 17.1413 32.1653 17.824 33.232C18.6347 34.4906 19.04 35.7813 19.04 37.104C19.04 37.9573 18.8587 38.864 18.496 39.824C18.1547 40.7626 17.5787 41.6373 16.768 42.448C15.9787 43.2586 14.9547 43.92 13.696 44.432C12.4373 44.944 11.04 45.2 9.504 45.2C7.98933 45.2 6.61333 44.9333 5.376 44.4C3.09333 43.44 1.64267 41.7653 1.024 39.376C0.896001 38.864 0.832001 38.3306 0.832001 37.776C0.832001 35.984 1.46133 34.288 2.72 32.688L3.008 32.912Z" fill="#FFFC89"/>
<path d="M161.381 69.36C161.381 67.824 161.712 66.512 162.373 65.424H162.661C162.64 65.5946 162.629 65.7653 162.629 65.936C162.629 67.408 163.152 68.6986 164.197 69.808C165.264 70.896 166.715 71.44 168.549 71.44C169.979 71.44 171.088 71.0986 171.877 70.416C172.688 69.7333 173.093 68.8693 173.093 67.824C173.093 66.5653 172.24 65.4666 170.533 64.528L164.965 60.848C163.856 60.208 163.056 59.44 162.565 58.544C162.096 57.6266 161.861 56.6986 161.861 55.76C161.861 53.7546 162.491 52.208 163.749 51.12C165.029 50.032 166.661 49.488 168.645 49.488C169.819 49.488 171.269 49.5946 172.997 49.808H175.013L174.597 54.512H174.277C174.277 53.4026 173.861 52.5173 173.029 51.856C172.219 51.1733 171.131 50.832 169.765 50.832C168.101 50.832 166.896 51.344 166.149 52.368C165.765 52.8586 165.573 53.4133 165.573 54.032C165.573 55.056 166.32 56.0053 167.813 56.88L173.925 60.848C175.845 61.9573 176.805 63.5893 176.805 65.744C176.805 68.0266 176.027 69.776 174.469 70.992C172.933 72.1866 170.885 72.784 168.325 72.784C166.875 72.784 165.531 72.6133 164.293 72.272C163.077 71.9093 162.181 71.4293 161.605 70.832C161.456 70.4266 161.381 69.936 161.381 69.36Z" fill="#FFFC89"/>
<path d="M159.239 61.936H158.759C158.247 61.936 157.853 62.064 157.575 62.32C157.298 62.5546 157.159 62.9066 157.159 63.376V68.656C156.327 69.744 154.951 70.704 153.031 71.536C151.111 72.368 148.957 72.784 146.567 72.784C142.919 72.784 139.986 71.7386 137.767 69.648C135.57 67.536 134.471 64.6986 134.471 61.136C134.471 57.552 135.57 54.7146 137.767 52.624C139.986 50.5333 142.983 49.488 146.759 49.488C148.466 49.488 150.119 49.6586 151.719 50C153.319 50.32 154.61 50.7253 155.591 51.216L155.655 56.72H155.367C154.813 54.6506 153.863 53.1573 152.519 52.24C151.175 51.3013 149.575 50.832 147.719 50.832C145.138 50.832 143.154 51.76 141.767 53.616C140.381 55.4506 139.687 57.9786 139.687 61.2C139.687 64.4 140.317 66.9066 141.575 68.72C142.855 70.5333 144.658 71.44 146.983 71.44C148.669 71.44 150.077 70.96 151.207 70C151.762 69.5093 152.167 68.9333 152.423 68.272V63.376C152.423 62.9066 152.274 62.5546 151.975 62.32C151.698 62.064 151.293 61.936 150.759 61.936H150.247V61.616H159.239V61.936Z" fill="#FFFC89"/>
<path d="M132.019 50.256C131.486 50.256 131.027 50.448 130.643 50.832C130.259 51.1947 130.056 51.6427 130.035 52.176V68.688C130.035 70.1173 130.131 71.3227 130.323 72.304L130.419 72.784H130.131L113.971 57.392V70.096C113.971 70.6293 114.163 71.088 114.547 71.472C114.931 71.8347 115.39 72.016 115.923 72.016H116.531V72.336H106.835V72.016H107.411C107.966 72.016 108.435 71.8347 108.819 71.472C109.203 71.088 109.395 70.6187 109.395 70.064V53.456C109.395 52.048 109.299 50.8747 109.107 49.936L109.043 49.456H109.331L125.491 64.848V52.208C125.47 51.6533 125.267 51.1947 124.883 50.832C124.499 50.448 124.04 50.256 123.507 50.256H122.931V49.936H132.627V50.256H132.019Z" fill="#FFFC89"/>
<path d="M95.2912 72.016C95.8459 72.016 96.3152 71.824 96.6992 71.44C97.1046 71.0346 97.3179 70.5546 97.3392 70V52.24C97.3179 51.6853 97.1046 51.216 96.6992 50.832C96.3152 50.448 95.8459 50.256 95.2912 50.256H94.8752V49.936H104.603L104.571 50.256H104.187C103.633 50.256 103.153 50.448 102.747 50.832C102.342 51.216 102.139 51.6853 102.139 52.24V70C102.139 70.5546 102.342 71.0346 102.747 71.44C103.153 71.824 103.633 72.016 104.187 72.016H104.571L104.603 72.336H94.8752V72.016H95.2912Z" fill="#FFFC89"/>
<path d="M71.1037 72.016C71.6584 72.016 72.1277 71.824 72.5117 71.44C72.9171 71.0346 73.1304 70.5546 73.1517 70V52.24C73.1304 51.472 72.7784 50.896 72.0957 50.512C71.7971 50.3413 71.4664 50.256 71.1037 50.256H70.6877V49.936H80.4157L80.3837 50.256H79.9997C79.2317 50.256 78.6451 50.5866 78.2397 51.248C78.0477 51.5466 77.9517 51.8773 77.9517 52.24V70C77.9517 70.5546 78.1544 71.0346 78.5597 71.44C78.9651 71.824 79.4451 72.016 79.9997 72.016H80.3837L80.4157 72.336H70.6877V72.016H71.1037ZM94.2077 72.336H91.5837C88.3411 72.336 86.0477 71.4506 84.7037 69.68C80.8851 64.496 78.9757 61.8613 78.9757 61.776L86.5597 51.728C86.7304 51.5146 86.8157 51.3226 86.8157 51.152C86.8157 50.9813 86.7837 50.832 86.7197 50.704C86.5491 50.384 86.2504 50.224 85.8237 50.224H85.5037V49.936H92.8317V50.224H92.7037C91.2744 50.224 90.1117 50.736 89.2157 51.76L82.9757 59.152L90.9437 70.032C91.9251 71.312 93.0131 71.9733 94.2077 72.016V72.336Z" fill="#FFFC89"/>
<path d="M58.76 72.016C59.3147 72.016 59.784 71.824 60.168 71.44C60.5733 71.0346 60.7867 70.5546 60.808 70V52.24C60.7867 51.6853 60.5733 51.216 60.168 50.832C59.784 50.448 59.3147 50.256 58.76 50.256H58.344V49.936H68.072L68.04 50.256H67.656C67.1013 50.256 66.6213 50.448 66.216 50.832C65.8107 51.216 65.608 51.6853 65.608 52.24V70C65.608 70.5546 65.8107 71.0346 66.216 71.44C66.6213 71.824 67.1013 72.016 67.656 72.016H68.04L68.072 72.336H58.344V72.016H58.76Z" fill="#FFFC89"/>
<path d="M63.632 42C64.1653 42 64.6133 42.0213 64.976 42.064V42.384C63.6533 42.448 62.512 42.768 61.552 43.344C60.464 44.0053 59.6853 44.624 59.216 45.2C58.768 45.7547 58.4053 46.2133 58.128 46.576C57.872 46.9173 57.616 47.3333 57.36 47.824C56.9547 48.5707 56.5813 49.3067 56.24 50.032L47.664 68.784C46.6827 70.896 46.16 72.2933 46.096 72.976H45.808L36.112 52.08C35.792 51.4827 35.3867 51.0347 34.896 50.736C34.4053 50.416 33.904 50.256 33.392 50.256H33.136V49.936H43.312V50.256H43.056C42.5867 50.256 42.2347 50.4053 42 50.704C41.7867 50.9813 41.68 51.248 41.68 51.504C41.68 51.76 41.7227 52.016 41.808 52.272L47.248 65.488L53.872 50.032C54.8747 47.664 56.048 45.8827 57.392 44.688C59.376 42.896 61.456 42 63.632 42Z" fill="#FFFC89"/>
<path fill-rule="evenodd" clip-rule="evenodd" d="M124.472 23.4723C124.014 23.3088 123.539 23.1682 123.046 23.0506C122.062 23.3363 121.424 23.6897 120.857 24.189C121.192 24.2792 121.515 24.3939 121.826 24.5333C121.921 24.4678 122.018 24.4049 122.117 24.3462C122.609 24.0511 123.456 23.742 124.472 23.4723ZM123.229 25.3943C124.521 25.1578 125.9 24.9964 127.291 24.9249C127.413 25.0107 127.532 25.0988 127.65 25.1892C127.875 25.3619 128.093 25.5433 128.304 25.7332C130.629 27.8239 131.792 30.6612 131.792 34.2452C131.792 37.8292 130.629 40.6666 128.304 42.7572C125.979 44.8479 122.843 45.8932 118.896 45.8932C114.949 45.8932 111.813 44.8479 109.488 42.7572C107.163 40.6666 106 37.8292 106 34.2452C106 31.8772 106.523 29.8186 107.568 28.0692C108.248 26.9401 109.106 25.9801 110.142 25.1892C110.268 25.0932 110.397 24.9996 110.528 24.9085L110.797 24.9208C111.922 24.9715 113.35 25.1367 114.622 25.3461C114.488 25.4523 114.357 25.5645 114.229 25.6828C113.897 25.9897 113.586 26.3372 113.296 26.7252C111.931 28.5599 111.248 31.0666 111.248 34.2452C111.248 37.4239 111.931 39.9412 113.296 41.7972C114.683 43.6319 116.549 44.5492 118.896 44.5492C121.243 44.5492 123.099 43.6319 124.464 41.7972C125.851 39.9412 126.544 37.4239 126.544 34.2452C126.544 32.1546 126.235 30.3306 125.616 28.7732C125.111 27.5011 124.427 26.4709 123.566 25.6828C123.457 25.5827 123.344 25.4866 123.229 25.3943ZM113.521 23.4151C114.705 23.694 115.552 24.0132 116.214 24.4242C116.545 24.2925 116.891 24.1877 117.251 24.1099C116.654 23.6374 115.911 23.2725 115.004 23C114.493 23.1141 113.999 23.2525 113.521 23.4151Z" fill="#FFFC89"/>
<path d="M103.621 0.603302C104.597 1.9536 104.597 4.02215 103.621 8.07306C103.075 10.314 103.003 10.788 103.003 12.3825C102.988 14.0345 103.017 14.2356 103.362 14.9682C104.08 16.4909 105.459 17.6832 107.154 18.2721C107.628 18.4302 109.094 18.6744 110.659 18.8467C112.125 19.0191 113.834 19.2633 114.452 19.4213C116.922 20.039 118.301 21.2457 118.862 23.2999L119.034 23.9463L119.293 23.1275C119.609 22.0932 120.011 21.4468 120.744 20.786C121.907 19.7374 123.344 19.3208 127.466 18.8467C130.382 18.5164 130.856 18.4014 131.963 17.8125C134.189 16.6345 135.396 14.4367 135.18 11.9516C135.123 11.3626 134.835 9.76812 134.519 8.43218C133.787 5.21444 133.6 4.03652 133.701 2.88732C133.801 1.78123 134.089 0.976789 134.634 0.402193L135.022 -2.47955e-05L134.663 0.100531C132.767 0.660763 131.876 3.28954 131.733 8.73384C131.646 11.7505 131.517 12.2389 130.54 13.0864C129.592 13.9339 128.486 14.2643 126.403 14.3362L124.679 14.3936L125.901 14.0345C127.696 13.5174 128.199 13.2588 128.199 12.8709C128.199 12.0952 125.671 8.90622 123.717 7.21116C122.036 5.76031 122.094 5.77467 121.663 6.6222C121.189 7.57029 120.629 9.52391 120.341 11.2621C120.054 13.029 119.795 12.9859 119.939 11.1759C120.068 9.49518 120.485 7.16807 120.945 5.63102C121.131 4.95587 121.304 4.33818 121.304 4.25199C121.304 4.07961 119.479 3.18899 119.106 3.18899C118.761 3.18899 117.396 3.73485 117.037 4.02215L116.707 4.26636L117.009 5.20008C117.526 6.85204 118 9.39463 118.1 11.0753C118.172 12.3107 118.143 12.6842 118.029 12.6124C117.928 12.5549 117.856 12.3394 117.856 12.124C117.842 10.8024 116.606 6.55038 116.046 5.93269C115.931 5.8034 114.365 7.16807 113.03 8.5471C111.579 10.0411 110.473 11.4488 110.013 12.4113C109.668 13.1295 109.841 13.3019 111.378 13.7616C113.446 14.3793 113.46 14.3936 111.679 14.3362C109.094 14.2356 107.628 13.6179 106.853 12.2963C106.45 11.6212 106.45 11.5494 106.335 8.57583C106.192 4.26636 105.732 2.22654 104.64 0.976789C104.224 0.517113 103.534 0.0287056 103.276 0.0287056C103.233 0.0287056 103.391 0.287273 103.621 0.603302Z" fill="#FFFC89"/>
<path d="M109.309 19.4501C109.266 19.5506 109.151 20.0247 109.036 20.5131L108.835 21.3893L110.731 21.4755C112.642 21.5617 115.428 21.9783 116.836 22.3805C117.253 22.4954 117.626 22.5673 117.669 22.5385C117.698 22.4954 117.511 22.2225 117.253 21.9208C116.075 20.5705 114.38 19.9672 109.984 19.3639C109.553 19.2921 109.352 19.3208 109.309 19.4501Z" fill="#FFFC89"/>
<path d="M126.906 19.5075C124.866 19.8236 122.913 20.3838 122.051 20.9009C120.945 21.5617 119.953 22.7396 120.7 22.5242C122.625 21.9639 124.952 21.5904 127.308 21.4755C129.161 21.3893 129.219 21.375 129.147 21.0877C129.104 20.9153 129.003 20.4412 128.917 20.0247C128.73 19.1771 128.874 19.2202 126.906 19.5075Z" fill="#FFFC89"/>
</svg>
